<svg id="_x33_0" enable-background="new 0 0 64 64" height="512" viewBox="0 0 64 64" width="512" xmlns="http://www.w3.org/2000/svg"><g><g><g><path d="m15 41 .76 2.68c-1.33.61-2.6 1.39-3.76 2.32l-.42-.04 1.42-4.96z" fill="#ff826e"/></g><g><path d="m16.39 38.91-1.39 2.09h-2l-1.39-2.09 2.39-1.91z" fill="#fc6e51"/></g><g><path d="m13 41-1.42 4.96-9.58-.96v-.75c0-3.86 2.09-7.32 5.31-9.16l1.69 5.91 2.61-2.09z" fill="#e6e9ed"/></g><g><path d="m23 36.89c.56.56 1.04 1.18 1.45 1.85-.28.34-.45.78-.45 1.26 0 1.1.9 2 2 2h-2.6c-2.07 0-4.11.35-6.04 1.03l-1.6.65-.76-2.68 1.39-2.09 2.61 2.09 1.69-5.92c.36.21.71.43 1.04.68.46.34.89.72 1.27 1.13z" fill="#e6e9ed"/></g><g><path d="m16.39 38.91-2.39-1.91 4-3c.96.24 1.87.61 2.69 1.08l-1.69 5.92z" fill="#ccd1d9"/></g><g><path d="m10 34 4 3-2.39 1.91-2.61 2.09-1.69-5.91c.83-.48 1.73-.85 2.69-1.09z" fill="#ccd1d9"/></g><g><path d="m33 31 1.05 3.68h.01c-.04.1-.06.21-.06.32 0 1.66 1.34 3 3 3h-8l2-7z" fill="#ff826e"/></g><g><path d="m34.39 28.91-1.39 2.09h-2l-1.39-2.09 2.39-1.91z" fill="#fc6e51"/></g><g><path d="m24.45 38.74c-.41-.67-.89-1.29-1.45-1.85l-5-2.89-1-2 6-4.77c.04-.03.08-.07.12-.11l.65-.96c.48-.4.99-.76 1.54-1.08l1.69 5.92 2.61-2.09 1.39 2.09-2 7h-3c-.55 0-1.05.22-1.41.59-.05.05-.1.1-.14.15z" fill="#b4dd7f"/></g><g><path d="m34.05 34.68-1.05-3.68 1.39-2.09 2.61 2.09 1.69-5.92c.26.15.5.3.74.47 1.02.7 1.9 1.57 2.61 2.57.17 1.53.85 2.95 1.92 4.03-.54.57-.99 1.24-1.32 1.96v.01c-.67-.08-1.36-.12-2.04-.12h-5.6c-.33 0-.62.16-.94.68z" fill="#b4dd7f"/></g><g><path d="m32 27 4-3c.96.25 1.87.61 2.69 1.08l-1.69 5.92-2.61-2.09z" fill="#a0d468"/></g><g><path d="m28 24 4 3-2.39 1.91-2.61 2.09-1.69-5.92c.83-.47 1.73-.84 2.69-1.08z" fill="#a0d468"/></g><g><path d="m22.75 13.01-.54-2.16c-.14-.56-.21-1.14-.21-1.73 0-1.96.8-3.74 2.09-5.03s3.07-2.09 5.03-2.09h5.76c3.93 0 7.12 3.19 7.12 7.12 0 .59-.07 1.17-.21 1.73l-.54 2.16-.01.01c-.54-.63-1.34-1.02-2.24-1.02h-1l-6.02-.6c-1.62-.16-2.96-1.19-3.59-2.59l-.73.36c-1.02.51-1.66 1.55-1.66 2.68v.15h-1c-.9 0-1.7.39-2.24 1.02z" fill="#b27946"/></g><g><path d="m22 15c0 .83.34 1.58.88 2.12.27.27.6.5.97.65.1.55.15 1.12.15 1.7v.29c0 1.17-.21 2.32-.63 3.4-.55-.71-1.4-1.16-2.37-1.16h-1v-3h-12v3h-1c-.93 0-1.76.42-2.31 1.08l-.42-1.27c-.18-.54-.27-1.1-.27-1.67v-.02c0-2.42 1.65-4.53 4-5.12l.36-1.78c.37-1.87 2.01-3.22 3.92-3.22h2.25c3.15 0 5.95 1.54 7.67 3.92h.01c-.14.33-.21.7-.21 1.08z" fill="#656d78"/></g><g><path d="m62 18v9.39c0 1.8-.72 3.51-1.96 4.76l-.01.01c-1.49-1.35-2.69-1.94-4.03-2.16l-.98-2.93c1.84-1.18 2.98-3.23 2.98-5.46v-4.61h-12v4.61c0 1.33.4 2.58 1.11 3.63.49.72 1.12 1.35 1.87 1.83l-.98 2.93c-1.21.2-2.31.7-3.22 1.41-.29.22-.56.47-.82.74-1.07-1.08-1.75-2.5-1.92-4.03-.03-.24-.04-.48-.04-.73v-9.39c0-.8.09-1.57.27-2.31 1.04-4.41 5.01-7.69 9.73-7.69 2.76 0 5.26 1.12 7.07 2.93s2.93 4.31 2.93 7.07z" fill="#656d78"/></g><g><path d="m48.03 32c.1 1.82.9 3.51 2.19 4.74-2.3-1.42-4.89-2.32-7.58-2.62v-.01c.33-.72.78-1.39 1.32-1.96.26-.27.53-.52.82-.74.91-.71 2.01-1.21 3.22-1.41v1.53c0 .16.01.32.03.47z" fill="#ff826e"/></g><g><path d="m56 30c1.34.22 2.54.81 4.03 2.16.11.09.19.18.27.28 1.04 1.24 1.68 2.83 1.7 4.56l-10 1c2.31-1.16 3.82-3.45 3.98-6 .01-.16.02-.31.02-.47z" fill="#ff826e"/></g><g><path d="m48.03 32h7.95c-.16 2.55-1.67 4.84-3.98 6-.57-.46-1.16-.87-1.78-1.26-1.29-1.23-2.09-2.92-2.19-4.74z" fill="#ffeaa7"/></g><g><path d="m12 46v12l-10 1v-14l9.58.96z" fill="#b4dd7f"/></g><g><path d="m62 37.08v13.92l-10-1v-12l10-1z" fill="#4fc1e9"/></g><g><path d="m52 38v12c-1.62 1.3-3.44 2.3-5.36 2.97-1.93.68-3.97 1.03-6.04 1.03h-.6c1.1 0 2-.9 2-2 0-.55-.22-1.05-.59-1.41-.36-.37-.86-.59-1.41-.59h-2c1.1 0 2-.9 2-2 0-.55-.22-1.05-.59-1.41-.36-.37-.86-.59-1.41-.59v-.38c0-1.3.37-2.55 1.05-3.62.5-.79 1.17-1.47 1.97-2.01-.07-.11-.13-.22-.19-.33v-.01c-.5-1.01-1.54-1.65-2.67-1.65h-1.16c-1.66 0-3-1.34-3-3 0-.11.02-.22.06-.32.32-.52.61-.68.94-.68h5.6c.68 0 1.37.04 2.04.12 2.69.3 5.28 1.2 7.58 2.62.62.39 1.21.8 1.78 1.26z" fill="#f0d0b4"/></g><g><path d="m30 43c0-.55-.45-1-1-1h10.05c-.68 1.07-1.05 2.32-1.05 3.62v.38h-11c1.66 0 3-1.34 3-3z" fill="#f0d0b4"/></g><g><path d="m40.83 39.66c.06.11.12.22.19.33-.8.54-1.47 1.22-1.97 2.01h-10.05-3c-1.1 0-2-.9-2-2 0-.48.17-.92.45-1.26.04-.05.09-.1.14-.15.36-.37.86-.59 1.41-.59h3 8 1.16c1.13 0 2.17.64 2.67 1.65z" fill="#f0d0b4"/></g><g><path d="m27 46h11c.55 0 1.05.22 1.41.59.37.36.59.86.59 1.41 0 1.1-.9 2-2 2h2c.55 0 1.05.22 1.41.59.37.36.59.86.59 1.41 0 1.1-.9 2-2 2h-2c.55 0 1.05.22 1.41.59.37.36.59.86.59 1.41 0 1.1-.9 2-2 2h-4c1.1 0 2 .9 2 2 0 .55-.22 1.05-.59 1.41-.36.37-.86.59-1.41.59h-10.6c-4.14 0-8.16-1.41-11.4-4v-12c1.16-.93 2.43-1.71 3.76-2.32l1.6-.65c1.93-.68 3.97-1.03 6.04-1.03h2.6 3c.55 0 1 .45 1 1 0 1.66-1.34 3-3 3z" fill="#f0d0b4"/></g><g><path d="m18 34-4 3-4-3 .73-2.2v-.01c.4.14.82.21 1.27.21h4c.45 0 .87-.07 1.27-.21v.01z" fill="#f0d0b4"/></g><g><path d="m8 22v6h-1c-.83 0-1.58-.34-2.12-.88s-.88-1.29-.88-2.12c0-.73.26-1.4.69-1.92.55-.66 1.38-1.08 2.31-1.08z" fill="#f0d0b4"/></g><g><path d="m20 22v6c0 1.76-1.14 3.26-2.73 3.79-.4.14-.82.21-1.27.21h-4c-.45 0-.87-.07-1.27-.21-1.59-.53-2.73-2.03-2.73-3.79v-6-3h12z" fill="#f0d0b4"/></g><g><path d="m23 27.23c-.53.48-1.23.77-2 .77h-1v-6h1c.97 0 1.82.45 2.37 1.16.4.51.63 1.15.63 1.84 0 .41-.08.8-.23 1.16l-.65.96c-.04.04-.08.08-.12.11z" fill="#f0d0b4"/></g><g><path d="m39 12c.9 0 1.7.39 2.24 1.02.48.53.76 1.22.76 1.98 0 .21-.02.41-.06.61-.12.58-.42 1.11-.82 1.51-.54.54-1.29.88-2.12.88h-1v-6z" fill="#f0d0b4"/></g><g><path d="m36 24-4 3-4-3 .73-2.2v-.01c.4.14.82.21 1.27.21h4c.45 0 .87-.07 1.27-.21v.01z" fill="#f0d0b4"/></g><g><path d="m28.73 21.79c-1.59-.53-2.73-2.03-2.73-3.79v-6-.15c0-1.13.64-2.17 1.66-2.68l.73-.36c.63 1.4 1.97 2.43 3.59 2.59l6.02.6v6c0 1.76-1.14 3.26-2.73 3.79-.4.14-.82.21-1.27.21h-4c-.45 0-.87-.07-1.27-.21z" fill="#f0d0b4"/></g><g><path d="m26 12v6h-1c-.41 0-.8-.08-1.15-.23-.37-.15-.7-.38-.97-.65-.54-.54-.88-1.29-.88-2.12 0-.38.07-.75.21-1.08.12-.33.31-.64.55-.9.54-.63 1.34-1.02 2.24-1.02z" fill="#f0d0b4"/></g><g><path d="m56 30v1.53c0 .16-.01.31-.02.47h-7.95c-.02-.15-.03-.31-.03-.47v-1.53l.98-2.93c.34.22.7.41 1.09.56.61.24 1.27.37 1.93.37s1.32-.13 1.93-.37c.39-.15.75-.34 1.09-.56z" fill="#f0d0b4"/></g><g><path d="m55.02 27.07c-.34.22-.7.41-1.09.56-.61.24-1.27.37-1.93.37s-1.32-.13-1.93-.37c-.39-.15-.75-.34-1.09-.56-.75-.48-1.38-1.11-1.87-1.83-.71-1.05-1.11-2.3-1.11-3.63v-4.61h12v4.61c0 2.23-1.14 4.28-2.98 5.46z" fill="#f0d0b4"/></g></g><g><path d="m29 19h3c1.615 0 3.067-.897 3.789-2.342l.105-.211-1.789-.895-.105.212c-.381.762-1.147 1.236-2 1.236h-3z"/><path d="m11 29h3c1.615 0 3.067-.897 3.789-2.342l.105-.211-1.789-.895-.105.212c-.381.762-1.147 1.236-2 1.236h-3z"/><path d="m11 16.764h2v4.472h-2z" transform="matrix(.894 -.447 .447 .894 -7.23 7.372)"/><path d="m15 16.764h2v4.472h-2z" transform="matrix(.894 -.447 .447 .894 -6.808 9.161)"/><path d="m49 14.764h2v4.472h-2z" transform="matrix(.894 -.447 .447 .894 -2.324 24.155)"/><path d="m53 14.764h2v4.472h-2z" transform="matrix(.894 -.447 .447 .894 -1.902 25.944)"/><path d="m63 18c0-6.065-4.935-11-11-11-4.157 0-7.782 2.319-9.652 5.73l.409-1.637c.161-.642.243-1.305.243-1.97 0-4.479-3.644-8.123-8.123-8.123h-5.754c-4.479 0-8.123 3.644-8.123 8.123 0 .665.082 1.328.243 1.97l.111.444c-1.883-1.615-4.304-2.537-6.826-2.537h-2.249c-2.375 0-4.437 1.69-4.903 4.02l-.24 1.2c-2.465.892-4.136 3.236-4.136 5.923 0 .678.108 1.346.322 1.986l.269.807c-.367.604-.591 1.306-.591 2.064 0 2.206 1.794 4 4 4h.101c.289 1.419 1.193 2.604 2.408 3.31l-.289.868c-4.867 1.467-8.22 5.94-8.22 11.068v15.859l10.7-1.07c3.347 2.56 7.486 3.965 11.703 3.965h10.597c1.654 0 3-1.346 3-3 0-.352-.072-.686-.184-1h1.184c1.654 0 3-1.346 3-3 0-.356-.073-.692-.187-1.009 4.142-.047 8.198-1.44 11.487-3.956l10.7 1.07v-15.022c0-1.842-.609-3.55-1.646-4.926 1.064-1.355 1.646-3.014 1.646-4.762zm-11-9c4.962 0 9 4.037 9 9v9.395c0 1.203-.38 2.342-1.062 3.303-.91-.728-1.983-1.272-3.171-1.561l-.563-1.689c1.743-1.393 2.796-3.512 2.796-5.833v-4.615h-2v4.615c0 2.252-1.352 4.248-3.442 5.085-.996.398-2.12.398-3.115 0-2.091-.837-3.443-2.833-3.443-5.085v-4.615h-2v4.615c0 2.321 1.053 4.44 2.797 5.832l-.563 1.69c-1.171.286-2.246.828-3.167 1.566-.685-.962-1.067-2.103-1.067-3.308v-9.395c0-4.963 4.038-9 9-9zm-11.22 40.116c.139-.346.22-.721.22-1.116 0-1.292-.825-2.386-1.973-2.807.109-1.46.762-2.809 1.827-3.795.967 1.008 2.307 1.602 3.759 1.602h.387v-2h-.387c-1.23 0-2.334-.684-2.888-1.794-.678-1.36-2.043-2.206-3.562-2.206h-1.167c-1.1 0-1.996-.897-1.996-2h5.597c3.747 0 7.418 1.249 10.403 3.506v10.987c-2.378 1.798-5.191 2.945-8.132 3.339.077-.265.132-.541.132-.832 0-1.383-.945-2.539-2.22-2.884zm-19.78-26.116c1.103 0 2 .897 2 2s-.897 2-2 2zm4-6c-1.103 0-2-.897-2-2s.897-2 2-2zm0 2h.101c.289 1.419 1.193 2.604 2.408 3.31l-.289.868c-.811.244-1.581.579-2.311.988-.086-.405-.247-.779-.446-1.128.35-1.058.537-2.155.537-3.274v-.292c0-.158-.014-.316-.021-.474.007 0 .014.002.021.002zm14-6c1.103 0 2 .897 2 2s-.897 2-2 2zm10.7 15.558c.736.294 1.509.442 2.3.442s1.564-.148 2.3-.442c.049-.02.093-.049.142-.069l.558 1.674v.837h-6v-.837l.558-1.675c.049.021.093.05.142.07zm2.368 8.244c-.389-.288-.786-.564-1.194-.822-.834-.817-1.413-1.857-1.688-2.98h5.628c-.378 1.572-1.351 2.932-2.746 3.802zm-4.573-2.503c-1.052-.404-2.136-.717-3.244-.932.703-.933 1.655-1.643 2.749-2.056v.217c0 .951.177 1.887.495 2.771zm-5.428-1.238c-.489-.038-.979-.061-1.47-.061h-5.597c-.129 0-.255.015-.378.038l-.534-1.868.53-.795 2.931 2.344 1.725-6.037c.683.527 1.295 1.145 1.818 1.844.194 1.33.725 2.576 1.558 3.635-.215.284-.406.587-.583.9zm-12.067-10.061h4c.203 0 .396-.036.593-.06l.231.692-2.824 2.118-2.823-2.117.231-.692c.196.023.389.059.592.059zm3.633 4.025 2.566-1.924c.448.135.885.3 1.305.497l-1.052 3.682zm-5.826-1.92 2.56 1.92-2.818 2.255-1.051-3.677c.421-.198.858-.362 1.309-.498zm4.193 3.176 1.051.84-.586.879h-.93l-.586-.879zm-.246 3.719h.492l.781 2.734c-.012.088-.027.175-.027.266 0 .732.212 1.409.556 2h-3.23zm7.145-13h.101c.732 0 1.409-.212 2-.556v7.062c-1.223-1.058-2.658-1.857-4.22-2.328l-.289-.868c1.215-.706 2.119-1.891 2.408-3.31zm-1.899-1c0 1.654-1.346 3-3 3h-4c-1.654 0-3-1.346-3-3v-6.146c0-.718.375-1.367.988-1.726.876 1.243 2.268 2.102 3.893 2.265l5.119.512zm-16.101 11h.101c1.542 0 2.868-.886 3.535-2.168.063-.051.129-.095.193-.144l1.723 6.032 2.931-2.344.53.795-1.666 5.829h-2.246c-.471 0-.912.119-1.309.313-1.479-1.979-3.534-3.421-5.911-4.136l-.289-.868c1.215-.705 2.119-1.89 2.408-3.309zm-2.702 6.102c.45.135.89.292 1.309.488l-1.055 3.69-2.818-2.255zm-4.197 3.179 1.051.84-.586.879h-.93l-.586-.879zm-.246 3.719h.492l.33 1.156c-.469.241-.927.502-1.375.781zm2.666.332-.332-1.162.53-.795 1.668 1.335c-.632.175-1.254.384-1.866.622zm4.855-5.654c.761.588 1.431 1.293 1.993 2.098-.169.374-.268.787-.268 1.224 0 .356.073.692.187 1.009-1.091.012-2.174.121-3.24.317zm3.725 3.322c0-.552.449-1 1-1h12.163c.607 0 1.155.28 1.528.743-.436.376-.818.802-1.156 1.257h-12.535c-.551 0-1-.448-1-1zm12.465 3c-.229.639-.371 1.31-.426 2h-6.599c.344-.591.556-1.268.556-2.001h6.469zm19.535-11.472v-.223c2.071.777 3.565 2.602 3.913 4.798l-5.72.572c1.149-1.43 1.807-3.227 1.807-5.147zm-27.877-28.528h5.754c3.376 0 6.123 2.747 6.123 6.123 0 .501-.062 1.001-.183 1.485l-.187.747c-.499-.224-1.048-.355-1.63-.355h-.948l-5.972-.597c-1.756-.175-3.08-1.638-3.08-3.403h-2c0 .449.054.886.157 1.304-1.073.557-1.808 1.547-2.057 2.696h-.1c-.582 0-1.131.131-1.63.355l-.187-.748c-.121-.483-.183-.983-.183-1.484 0-3.376 2.747-6.123 6.123-6.123zm-24.123 22c0-1.103.897-2 2-2v4c-1.103 0-2-.897-2-2zm2-6v2c-.648 0-1.251.169-1.793.444-.135-.421-.207-.858-.207-1.321 0-1.968 1.333-3.676 3.243-4.153l.614-.153.481-2.404c.279-1.398 1.516-2.413 2.941-2.413h2.249c2.551 0 4.966 1.175 6.569 3.146-.061.276-.097.56-.097.854 0 1.444.776 2.699 1.925 3.403.044.354.075.71.075 1.069v.292c0 .574-.063 1.14-.177 1.697-.549-.285-1.163-.461-1.823-.461v-2h-2v9c0 1.654-1.346 3-3 3h-4c-1.654 0-3-1.346-3-3v-9zm5 14h4c.203 0 .396-.036.593-.06l.231.692-2.824 2.118-2.823-2.117.231-.692c.196.023.389.059.592.059zm-2.199 2.1 2.567 1.925-2.819 2.255-1.053-3.683c.418-.195.853-.361 1.305-.497zm-3.077 1.572 1.728 6.047 2.931-2.344.53.795-1.06 3.71-7.845-.784c.045-2.984 1.46-5.686 3.716-7.424zm-3.724 9.433 8 .8v10.191l-8 .799zm35 10.895h-13v2h9c.551 0 1 .448 1 1s-.449 1-1 1h-10.597c-3.747 0-7.418-1.249-10.403-3.506v-10.988c2.985-2.257 6.656-3.506 10.403-3.506h5.593c0 1.103-.896 2-1.996 2v.001h-2v2l13-.001c.551 0 1 .448 1 1s-.449 1-1 1h-13v2h15c.551 0 1 .448 1 1s-.449 1-1 1h-15v2h13c.551 0 1 .448 1 1s-.449 1-1 1zm15-7.905v-10.19l8-.8v11.789z"/></g></g></svg>