<svg id="Capa_1" enable-background="new 0 0 512 512" height="512" viewBox="0 0 512 512" width="512" xmlns="http://www.w3.org/2000/svg"><g><g><g><path d="m390.267 413.561h-372.769c-5.522 0-9.999-4.477-9.999-9.999v-290.212l4.999-14.342h382.768l4.999 14.342v290.213c0 5.522-4.476 9.998-9.998 9.998z" fill="#d3effb"/></g><g><path d="m395.266 99.008h-32.598v266.957c0 5.522-4.476 9.999-9.999 9.999h-345.17v27.599c0 5.522 4.477 9.999 9.999 9.999h372.769c5.522 0 9.999-4.477 9.999-9.999v-290.213z" fill="#b1e4f9"/></g><g><path d="m400.265 113.35h-392.766v-88.986c0-5.523 4.477-10 10-10h372.766c5.523 0 10 4.477 10 10z" fill="#5766cb"/></g><g><path d="m390.267 14.364h-27.599v98.986h37.597v-88.988c0-5.522-4.476-9.998-9.998-9.998z" fill="#3d4fc3"/></g></g><g><g><path d="m270.028 215.876c-3.213-2.212-7.019-3.391-10.92-3.38-9.92.03-48.154.085-48.154.085-1.209 0-2.145-1.07-1.984-2.268.896-6.677 1.873-13.047 2.458-19.453 1.074-11.771.67-23.413-5.787-33.887-7.07-11.467-18.119-15.441-30.055-11.206-2.106.747-2.985 1.649-2.722 4.065 1.025 9.443 1.972 18.901 2.597 28.377.176 2.672-.22 5.748-1.423 8.088-9.123 17.732-18.543 35.311-27.729 53.011-.343.661-1.03 1.077-1.775 1.077-15.186.008-20.559-.005-27.319-.105-4.756-.058-8.647 3.786-8.647 8.543v72.654c0 4.755 3.89 8.597 8.645 8.539 12.432-.181 101.343.04 126.117-.207 10.497-.104 18.437-9.568 17.291-19.614-.174-1.521-.589-3.014-.991-4.502-.258-.958.234-1.961 1.147-2.349 14.358-6.111 12.274-20.477 11.204-25.023-.192-.817.148-1.665.856-2.116 2.632-1.677 8.55-6.375 8.55-14.724 0-7.379-3.623-12.034-5.889-14.223-.058-.056-.155-.142-.276-.246-.809-.693-.947-1.905-.296-2.748.018-.023.032-.042.043-.058 6.509-9.037 4.443-21.868-4.941-28.33z" fill="#90d8f9"/></g></g><g><circle cx="333.243" cy="335.786" fill="#dd636e" r="38.62"/></g><g><circle cx="458.393" cy="451.529" fill="#dd636e" r="46.108"/></g><g><circle cx="458.393" cy="240.561" fill="#dd636e" r="30.072"/></g><g><path d="m350.553 301.265c2.617 5.208 4.099 11.084 4.099 17.31 0 21.329-17.291 38.62-38.62 38.62-6.226 0-12.102-1.482-17.31-4.099 6.348 12.635 19.418 21.31 34.521 21.31 21.329 0 38.62-17.291 38.62-38.62 0-15.103-8.675-28.173-21.31-34.521z" fill="#d82e3d"/></g><g><path d="m479.059 410.314c3.124 6.218 4.893 13.234 4.893 20.666 0 25.465-20.643 46.108-46.108 46.108-7.433 0-14.448-1.769-20.666-4.893 7.579 15.084 23.183 25.441 41.215 25.441 25.465 0 46.108-20.643 46.108-46.108 0-18.031-10.357-33.635-25.442-41.214z" fill="#d82e3d"/></g><g><path d="m466.735 211.67c.764 2.65 1.182 5.447 1.182 8.342 0 16.609-13.464 30.072-30.072 30.072-2.896 0-5.692-.418-8.342-1.182 3.617 12.548 15.178 21.73 28.891 21.73 16.609 0 30.072-13.464 30.072-30.072-.001-13.712-9.182-25.272-21.731-28.89z" fill="#d82e3d"/></g><g><path d="m7.499 168.787c4.142 0 7.499-3.357 7.499-7.499v-40.44h377.768v117.775c0 4.141 3.357 7.499 7.499 7.499s7.499-3.357 7.499-7.499v-214.261c0-9.648-7.849-17.498-17.498-17.498h-372.768c-9.649.001-17.498 7.85-17.498 17.498v136.926c0 4.142 3.357 7.499 7.499 7.499zm9.999-146.925h372.769c1.379 0 2.5 1.121 2.5 2.5v81.489h-377.769v-81.489c0-1.378 1.121-2.5 2.5-2.5z"/><circle cx="55.43" cy="63.576" r="14.623"/><circle cx="99.899" cy="63.576" r="14.623"/><circle cx="144.369" cy="63.576" r="14.623"/><path d="m288.887 261.48c0-7.591-2.842-13.12-5.546-16.657 2.637-5.242 3.523-11.175 2.495-17.095-1.28-7.377-5.384-13.779-11.556-18.028-4.468-3.077-9.692-4.702-15.113-4.702-.026 0-.054 0-.081 0-9.914.03-29.543.085-38.471.085h-3.355c.635-4.592 1.222-8.991 1.637-13.541 1.075-11.785 1.098-25.575-6.872-38.503-8.92-14.466-23.479-19.826-38.945-14.338-7.515 2.665-8.031 8.626-7.671 11.941.907 8.366 1.922 18.242 2.569 28.06.12 1.826-.22 3.407-.609 4.164-5.076 9.868-22.597 43.153-26.174 50.021-12.546.005-17.623-.013-23.889-.105-4.316-.026-8.393 1.592-11.468 4.63-3.076 3.038-4.769 7.09-4.769 11.411v72.654c0 4.32 1.693 8.372 4.769 11.41 3.027 2.99 7.02 4.629 11.28 4.629 0 0 101.641.038 126.287-.208 7.02-.07 13.745-3.165 18.451-8.491 4.749-5.376 7.015-12.473 6.216-19.473-.049-.427-.109-.845-.178-1.253 10.684-6.593 13.367-17.879 12.054-27.844 3.945-3.359 8.939-9.451 8.939-18.767zm-20.079 8.4c-3.389 2.16-5.047 6.242-4.126 10.158 1.316 5.595 1.198 12.983-6.842 16.405-4.333 1.844-6.676 6.662-5.449 11.201 1.371 3.989 1.127 7.997-1.774 11.243-1.926 2.18-4.54 3.396-7.36 3.424-24.917.248-126.144.207-126.149.207-.351 0-.59-.163-.729-.301-.142-.14-.311-.382-.311-.74v-72.654c0-.359.169-.601.311-.742.141-.139.381-.303.714-.303h.013c6.874.102 12.31.114 27.429.105 3.563 0 6.794-1.964 8.431-5.121 4.047-7.8 22.632-43.105 27.74-53.035 2.337-4.54 2.405-9.474 2.238-12.011-.586-8.904-1.46-17.789-2.294-25.63 9.457-2.167 15.301 3.457 18.61 8.823 5.658 9.178 5.552 19.947 4.702 29.269-.431 4.713-1.083 9.421-1.774 14.404-.663 4.135-1.606 8.883 1.619 12.254 1.805 2.062 4.411 3.244 7.148 3.244l48.176-.085c2.381-.007 4.681.704 6.645 2.058 2.823 1.943 4.699 4.869 5.284 8.24.582 3.353-.171 6.708-2.122 9.457-3.017 3.984-2.424 9.63 1.426 12.973 1.628 1.601 3.526 4.403 3.526 8.757-.001 4.492-3.184 7.191-5.082 8.4z"/><path d="m458.393 397.922c-12.83 0-24.618 4.535-33.856 12.081l-16.774-15.513v-61.654c0-4.142-3.357-7.499-7.499-7.499s-7.499 3.357-7.499 7.499v47.784l-21.039-19.458c4.82-7.285 7.636-16.006 7.636-25.376 0-7.792-1.95-15.135-5.376-21.578l59.671-45.403c6.614 5.8 15.269 9.328 24.736 9.328 20.717 0 37.571-16.855 37.571-37.571s-16.854-37.571-37.571-37.571-37.572 16.855-37.572 37.571c0 5.846 1.343 11.384 3.736 16.323l-59.668 45.401c-8.266-7.812-19.402-12.617-31.646-12.617-25.43 0-46.118 20.689-46.118 46.119s20.688 46.118 46.118 46.118c10.658 0 20.475-3.644 28.293-9.738l31.23 28.882v2.513c0 1.378-1.121 2.5-2.5 2.5h-372.768c-1.379 0-2.5-1.121-2.5-2.5v-202.819c0-4.142-3.357-7.499-7.499-7.499s-7.499 3.357-7.499 7.499v202.819c0 9.648 7.849 17.498 17.498 17.498h372.769c6.347 0 11.899-3.409 14.967-8.48l9.121 8.436c-6.024 8.667-9.568 19.182-9.568 30.514 0 29.559 24.047 53.607 53.607 53.607s53.606-24.05 53.606-53.609-24.047-53.607-53.607-53.607zm0-179.934c12.446 0 22.573 10.126 22.573 22.573s-10.127 22.573-22.573 22.573c-12.447 0-22.574-10.126-22.574-22.573s10.127-22.573 22.574-22.573zm-156.271 117.798c0-17.16 13.961-31.121 31.121-31.121 17.161 0 31.122 13.961 31.122 31.121s-13.961 31.121-31.122 31.121c-17.16 0-31.121-13.96-31.121-31.121zm156.271 154.352c-21.289 0-38.609-17.32-38.609-38.609s17.32-38.609 38.609-38.609 38.609 17.32 38.609 38.609-17.32 38.609-38.609 38.609z"/></g></g></svg>